<svg width="90" height="116" viewBox="0 0 90 116" fill="none" xmlns="http://www.w3.org/2000/svg">
<g clip-path="url(#clip0_911_148)">
<path d="M82 1H8C4.13401 1 1 4.13401 1 8V108C1 111.866 4.13401 115 8 115H82C85.866 115 89 111.866 89 108V8C89 4.13401 85.866 1 82 1Z" fill="white"/>
<path d="M82 1H8C4.13401 1 1 4.13401 1 8V108C1 111.866 4.13401 115 8 115H82C85.866 115 89 111.866 89 108V8C89 4.13401 85.866 1 82 1Z" stroke="#F0F1F5" stroke-width="2"/>
<g clip-path="url(#clip1_911_148)">
<path d="M73 103.133H78.551L76.475 97.9313L78.551 92.7295H70.75L73 95.2066V103.133Z" fill="#0460B5"/>
<path d="M16.5508 103.133H11L13.0759 97.9313L11 92.7295H18.8008L16.5508 95.2066V103.133Z" fill="#0460B5"/>
<path d="M72 95.7021H17.5V106.106H72V95.7021Z" fill="#0460B5"/>
<path d="M24.8182 99.4399C25.0909 99.5752 25.3182 99.8006 25.4545 100.026C25.5909 100.296 25.6818 100.611 25.6818 100.882C25.6818 101.197 25.5909 101.467 25.4545 101.737C25.3182 102.007 25.0909 102.187 24.8182 102.323C24.5454 102.457 24.2272 102.548 23.9091 102.548H22.5V99.1699H23.9091C24.2272 99.215 24.5454 99.2601 24.8182 99.4399ZM24.5 101.872C24.6818 101.782 24.8182 101.647 24.9091 101.467C25.0909 101.106 25.0909 100.656 24.9091 100.296C24.8182 100.116 24.6818 99.9804 24.5 99.8907C24.3182 99.8006 24.1363 99.7555 23.9091 99.7555H23.1364V102.007H23.9091C24.0909 102.007 24.3182 101.962 24.5 101.872Z" fill="white"/>
<path d="M26.2266 99.2148H28.7266V99.7553H26.9084V100.611H28.5448V101.151H26.9084V102.007H28.8175V102.547H26.2266V99.2148Z" fill="white"/>
<path d="M31.0918 99.8455C30.9554 99.8004 30.7736 99.7553 30.5918 99.7553C30.4554 99.7553 30.319 99.8004 30.2281 99.8455C30.1372 99.8901 30.0918 99.9803 30.0918 100.07C30.0918 100.161 30.1372 100.251 30.1827 100.296C30.2281 100.341 30.319 100.431 30.41 100.431C30.5463 100.476 30.6827 100.521 30.819 100.566C31.0009 100.611 31.1827 100.701 31.3645 100.746C31.5009 100.836 31.6372 100.926 31.7281 101.061C31.819 101.196 31.91 101.376 31.8645 101.602C31.8645 101.782 31.819 102.007 31.6827 102.142C31.5463 102.277 31.41 102.412 31.2281 102.502C31.0009 102.593 30.7736 102.638 30.5463 102.638C30.2736 102.638 30.0009 102.593 29.7736 102.502C29.5463 102.412 29.319 102.277 29.0918 102.097L29.3645 101.557C29.5463 101.692 29.7281 101.827 29.9554 101.917C30.1372 102.007 30.3645 102.052 30.5463 102.052C30.6827 102.052 30.8645 102.007 30.9554 101.962C31.1372 101.872 31.1372 101.647 31.0463 101.466L31.0009 101.421C30.91 101.376 30.8645 101.287 30.7736 101.287C30.6827 101.242 30.5463 101.196 30.3645 101.151C30.1827 101.106 30.0009 101.016 29.819 100.971C29.6827 100.926 29.5463 100.791 29.4554 100.701C29.3645 100.566 29.2736 100.386 29.319 100.206C29.319 100.025 29.3645 99.8455 29.4554 99.7103C29.5918 99.575 29.7281 99.4398 29.9099 99.3501C30.1372 99.2599 30.3645 99.2148 30.5918 99.2148C30.819 99.2148 31.0463 99.2599 31.2281 99.305C31.41 99.3501 31.6372 99.4398 31.819 99.575L31.5463 100.116C31.4554 99.9803 31.2736 99.8901 31.0918 99.8455Z" fill="white"/>
<path d="M32.5449 99.2148H33.1813V102.593H32.5449V99.2148Z" fill="white"/>
<path d="M36.3175 100.882H36.863V102.187C36.6811 102.323 36.4539 102.412 36.2266 102.503C35.9993 102.593 35.772 102.638 35.4993 102.638C35.1811 102.638 34.863 102.548 34.5902 102.412C34.3175 102.278 34.0902 102.052 33.9539 101.782C33.772 101.512 33.7266 101.197 33.7266 100.882C33.7266 100.566 33.8175 100.251 33.9539 100.026C34.1357 99.7555 34.363 99.5301 34.6357 99.3953C34.9084 99.2601 35.2266 99.1699 35.5448 99.1699C35.772 99.1699 36.0448 99.215 36.272 99.3052C36.4993 99.3953 36.7266 99.485 36.863 99.6653L36.4993 100.161C36.363 100.025 36.2266 99.9353 36.0448 99.8907C35.863 99.8457 35.7266 99.8006 35.5448 99.8006C35.3175 99.8006 35.1357 99.8457 34.9539 99.9353C34.4084 100.251 34.2266 100.971 34.5448 101.512C34.772 101.872 35.1357 102.097 35.5448 102.097C35.6811 102.097 35.772 102.097 35.9084 102.052C36.0448 102.007 36.1811 101.962 36.272 101.872L36.3175 100.882Z" fill="white"/>
<path d="M40.0453 99.2148H40.6816V102.593H40.0907L38.318 100.251V102.593H37.6816V99.2148H38.318L40.0907 101.557L40.0453 99.2148Z" fill="white"/>
<path d="M43.6364 102.593L43.0455 101.602H42.1364V102.593H41.5V99.2148H42.9091C43.2727 99.1697 43.6364 99.305 43.9546 99.4848C44.1819 99.7102 44.3182 100.025 44.3182 100.341C44.3182 100.566 44.2728 100.791 44.1364 101.016C44 101.196 43.8182 101.332 43.6364 101.421L44.4091 102.547L43.6364 102.593ZM42.1364 101.016H42.9091C43.1364 101.016 43.3182 100.971 43.5 100.836C43.6364 100.701 43.6819 100.566 43.6819 100.386C43.6819 100.206 43.6364 100.025 43.5 99.9351C43.3182 99.8455 43.1364 99.7553 42.9546 99.8004H42.1364V101.016Z" fill="white"/>
<path d="M45.8192 101.827C46.0011 101.962 46.2283 102.052 46.4102 102.052C46.6374 102.052 46.8647 101.962 47.0011 101.827C47.1374 101.647 47.2283 101.421 47.2283 101.196V99.2148H47.8647V101.196C47.8647 101.466 47.8192 101.737 47.6829 101.962C47.5465 102.187 47.3647 102.367 47.1829 102.457C46.9556 102.593 46.6829 102.638 46.4102 102.638C46.1374 102.638 45.8647 102.593 45.592 102.457C45.3647 102.367 45.1829 102.187 45.092 101.962C44.9556 101.737 44.9102 101.466 44.9102 101.196V99.2148H45.5465V101.196C45.592 101.421 45.6829 101.647 45.8192 101.827Z" fill="white"/>
<path d="M50.3184 99.8455C50.182 99.8004 50.0002 99.7553 49.8184 99.7553C49.682 99.7553 49.5456 99.8004 49.4547 99.8455C49.3638 99.8901 49.3184 99.9803 49.3184 100.07C49.3184 100.161 49.3638 100.251 49.4093 100.296C49.4547 100.341 49.5456 100.431 49.6366 100.431C49.7729 100.476 49.9093 100.521 50.0456 100.566C50.2275 100.611 50.4093 100.701 50.5911 100.746C50.7275 100.836 50.8638 100.926 50.9547 101.061C51.0456 101.196 51.1366 101.376 51.0911 101.602C51.0911 101.782 51.0456 102.007 50.9093 102.142C50.7729 102.277 50.6366 102.412 50.4547 102.502C50.2275 102.593 50.0002 102.638 49.7729 102.638C49.5002 102.638 49.2275 102.593 49.0002 102.502C48.7729 102.412 48.5456 102.277 48.3184 102.097L48.5911 101.557C48.7729 101.692 48.9547 101.827 49.182 101.917C49.3638 102.007 49.5911 102.052 49.7729 102.052C49.9093 102.052 50.0911 102.007 50.182 101.962C50.3638 101.872 50.3638 101.647 50.2729 101.466L50.2275 101.421C50.1366 101.376 50.0911 101.287 50.0002 101.287C49.9093 101.242 49.7729 101.196 49.5911 101.151C49.4093 101.106 49.2275 101.016 49.0456 100.971C48.9093 100.926 48.7729 100.791 48.682 100.701C48.5911 100.566 48.5002 100.386 48.5456 100.206C48.5456 100.025 48.5911 99.8455 48.682 99.7103C48.8184 99.575 48.9547 99.4398 49.1366 99.3501C49.3638 99.2599 49.5911 99.2148 49.8184 99.2148C50.0456 99.2148 50.2729 99.2599 50.4547 99.305C50.6366 99.3501 50.8638 99.4398 51.0456 99.575L50.7729 100.116C50.682 99.9803 50.5002 99.8901 50.3184 99.8455Z" fill="white"/>
<path d="M51.7734 99.2148H52.4098V100.656H54.0916V99.2148H54.728V102.593H54.0916V101.242H52.4098V102.593H51.7734V99.2148Z" fill="white"/>
<path d="M55.9556 102.007C56.0011 102.052 56.0465 102.142 56.0465 102.277C56.0465 102.367 56.0011 102.457 55.9556 102.548C55.9102 102.593 55.8193 102.637 55.7284 102.637C55.6375 102.637 55.5465 102.593 55.5011 102.548C55.4556 102.457 55.4102 102.367 55.4102 102.277C55.4102 102.187 55.4556 102.097 55.5011 102.007C55.5465 101.962 55.6375 101.917 55.7284 101.917C55.8193 101.917 55.9102 101.962 55.9556 102.007Z" fill="white"/>
<path d="M57.772 100.521C57.5905 100.521 57.4085 100.611 57.272 100.746C57.136 100.881 57.0905 101.106 57.0905 101.286C57.0905 101.512 57.136 101.692 57.272 101.827C57.4085 101.962 57.5905 102.052 57.772 102.052C58.045 102.052 58.3175 101.962 58.454 101.737L58.863 102.052C58.7265 102.232 58.5905 102.367 58.4085 102.458C58.1815 102.548 57.954 102.592 57.7265 102.592C57.4995 102.592 57.272 102.548 57.045 102.412C56.8631 102.322 56.6813 102.142 56.5904 101.962C56.3631 101.557 56.3631 101.016 56.5904 100.611C56.6813 100.431 56.8631 100.25 57.045 100.16C57.272 100.071 57.4995 99.9805 57.7265 99.9805C57.954 99.9805 58.1815 100.026 58.363 100.115C58.545 100.205 58.6815 100.296 58.8175 100.476L58.454 100.836C58.3175 100.656 58.045 100.521 57.772 100.521Z" fill="white"/>
<path d="M61.1814 100.16C61.3634 100.25 61.5449 100.431 61.6814 100.611C61.8179 100.836 61.8634 101.061 61.8634 101.286C61.8634 101.512 61.8179 101.782 61.6814 101.962C61.5449 102.142 61.4089 102.322 61.1814 102.412C60.9539 102.503 60.7269 102.592 60.4539 102.592C60.1814 102.592 59.9539 102.548 59.7269 102.412C59.5449 102.322 59.3634 102.142 59.2269 101.962C59.0904 101.737 59.0449 101.512 59.0449 101.286C59.0449 101.061 59.0904 100.791 59.2269 100.611C59.3634 100.431 59.4994 100.25 59.7269 100.16C59.9539 100.026 60.1814 99.9805 60.4539 99.9805C60.7269 99.9805 60.9539 100.026 61.1814 100.16ZM59.9539 100.746C59.6814 101.061 59.6814 101.557 59.9539 101.872C60.0904 102.007 60.2724 102.097 60.4994 102.097C60.6814 102.097 60.9089 102.007 61.0449 101.872C61.3179 101.557 61.3179 101.061 61.0449 100.746C60.9089 100.611 60.7269 100.521 60.4994 100.521C60.2724 100.521 60.0904 100.566 59.9539 100.746Z" fill="white"/>
<path d="M66.5006 100.251C66.6826 100.431 66.7736 100.701 66.7736 100.971V102.593H66.1371V101.151C66.1371 100.971 66.0916 100.836 66.0006 100.701C65.9101 100.611 65.7281 100.521 65.5916 100.521C65.4101 100.521 65.2281 100.611 65.0916 100.746C64.9551 100.881 64.9101 101.062 64.9101 101.287V102.548H64.2736V101.151C64.2736 100.971 64.2281 100.836 64.1371 100.701C64.0461 100.611 63.8646 100.521 63.7281 100.521C63.5461 100.521 63.3646 100.611 63.2281 100.746C63.0916 100.881 63.0461 101.107 63.0916 101.287V102.548H62.4551V99.9806H63.0916V100.476C63.4101 99.9806 64.0916 99.8454 64.5916 100.116C64.7281 100.206 64.8646 100.386 64.9101 100.566C65.0461 100.16 65.4551 99.9355 65.8646 99.9355C66.0916 99.9355 66.3191 100.071 66.5006 100.251Z" fill="white"/>
<path d="M40.0735 73.9035V69.4329H41.6895V68.6165H37.5215V69.4329H39.1375V73.9035H40.0735ZM44.7756 73.9987C46.3676 73.9987 47.5036 72.8414 47.5036 71.264C47.5036 69.6866 46.3676 68.5293 44.7756 68.5293C43.1756 68.5293 42.0476 69.6866 42.0476 71.264C42.0476 72.8414 43.1756 73.9987 44.7756 73.9987ZM44.7756 73.1743C43.6956 73.1743 43.0076 72.3499 43.0076 71.264C43.0076 70.1701 43.6956 69.3537 44.7756 69.3537C45.8476 69.3537 46.5436 70.1701 46.5436 71.264C46.5436 72.3499 45.8476 73.1743 44.7756 73.1743ZM49.3328 73.9035V71.9219H50.7488C51.8608 71.9219 52.4848 71.1689 52.4848 70.2731C52.4848 69.3695 51.8687 68.6165 50.7488 68.6165H48.3968V73.9035H49.3328ZM50.6208 71.1054H49.3328V69.4329H50.6208C51.1488 69.4329 51.5248 69.7658 51.5248 70.2731C51.5248 70.7725 51.1488 71.1054 50.6208 71.1054ZM12.715 82.821L14.243 77.5339H13.195L12.155 81.6003L11.051 77.5339H10.307L9.20305 81.6003L8.16305 77.5339H7.12305L8.64305 82.821H9.64305L10.683 78.9131L11.715 82.821H12.715ZM18.5176 82.821V82.0045H15.7976V80.5302H18.4616V79.7137H15.7976V78.3504H18.5176V77.5339H14.8616V82.821H18.5176ZM22.1748 82.821C23.1828 82.821 23.7268 82.2106 23.7268 81.3863C23.7268 80.7442 23.2708 80.1814 22.6948 80.0942C23.1908 79.9912 23.6228 79.5394 23.6228 78.8814C23.6228 78.1363 23.0868 77.5339 22.1028 77.5339H19.4788V82.821H22.1748ZM21.9188 79.7137H20.4148V78.3504H21.9188C22.3908 78.3504 22.6628 78.6436 22.6628 79.0321C22.6628 79.4363 22.3908 79.7137 21.9188 79.7137ZM21.9588 82.0045H20.4148V80.5302H21.9588C22.4868 80.5302 22.7668 80.871 22.7668 81.2674C22.7668 81.7271 22.4628 82.0045 21.9588 82.0045ZM28.7286 82.821C30.3926 82.821 31.5126 81.735 31.5126 80.1735C31.5126 78.6278 30.3926 77.5339 28.7206 77.5339H26.7366V82.821H28.7286ZM28.7206 82.0045H27.6726V78.3504H28.7286C29.9126 78.3504 30.5526 79.1589 30.5526 80.1735C30.5526 81.1802 29.8806 82.0045 28.7206 82.0045ZM36.0723 82.821V82.0045H33.3523V80.5302H36.0163V79.7137H33.3523V78.3504H36.0723V77.5339H32.4163V82.821H36.0723ZM39.7455 82.821L41.8415 77.5339H40.7775L39.1615 81.8064L37.5455 77.5339H36.4815L38.5775 82.821H39.7455ZM46.0723 82.821V82.0045H43.3523V80.5302H46.0163V79.7137H43.3523V78.3504H46.0723V77.5339H42.4163V82.821H46.0723ZM50.2575 82.821V82.0045H47.9055V77.5339H46.9695V82.821H50.2575ZM53.3342 82.9161C54.9262 82.9161 56.0622 81.7588 56.0622 80.1814C56.0622 78.604 54.9262 77.4467 53.3342 77.4467C51.7342 77.4467 50.6062 78.604 50.6062 80.1814C50.6062 81.7588 51.7342 82.9161 53.3342 82.9161ZM53.3342 82.0917C52.2542 82.0917 51.5662 81.2673 51.5662 80.1814C51.5662 79.0875 52.2542 78.2711 53.3342 78.2711C54.4062 78.2711 55.1022 79.0875 55.1022 80.1814C55.1022 81.2673 54.4062 82.0917 53.3342 82.0917ZM57.8911 82.821V80.8393H59.3071C60.4191 80.8393 61.0431 80.0863 61.0431 79.1906C61.0431 78.2869 60.4271 77.5339 59.3071 77.5339H56.9553V82.821H57.8911ZM59.1791 80.0229H57.8911V78.3504H59.1791C59.7071 78.3504 60.0831 78.6833 60.0831 79.1906C60.0831 79.69 59.7071 80.0229 59.1791 80.0229ZM67.3741 82.821V77.5339H66.0541L64.6061 81.1643L63.1501 77.5339H61.8301V82.821H62.7661V78.7388L64.4061 82.821H64.8061L66.4381 78.7388V82.821H67.3741ZM72.1661 82.821V82.0045H69.4461V80.5302H72.1101V79.7137H69.4461V78.3504H72.1661V77.5339H68.5101V82.821H72.1661ZM77.7511 82.821V77.5339H76.8151V81.196L74.0871 77.5339H73.1271V82.821H74.0631V79.04L76.8471 82.821H77.7511ZM81.0931 82.821V78.3504H82.7091V77.5339H78.5411V78.3504H80.1571V82.821H81.0931ZM25.5858 91.8335C26.6578 91.8335 27.3218 91.2707 27.7298 90.6366L26.9298 90.2403C26.6738 90.6762 26.1538 91.0091 25.5858 91.0091C24.5298 91.0091 23.7458 90.2006 23.7458 89.0988C23.7458 87.9812 24.5298 87.1885 25.5858 87.1885C26.1538 87.1885 26.6738 87.5135 26.9298 87.9574L27.7218 87.5452C27.3298 86.9111 26.6578 86.3642 25.5858 86.3642C24.0098 86.3642 22.7858 87.466 22.7858 89.0988C22.7858 90.7238 24.0098 91.8335 25.5858 91.8335ZM30.967 91.8335C32.559 91.8335 33.695 90.6762 33.695 89.0988C33.695 87.5214 32.559 86.3642 30.967 86.3642C29.367 86.3642 28.239 87.5214 28.239 89.0988C28.239 90.6762 29.367 91.8335 30.967 91.8335ZM30.967 91.0091C29.887 91.0091 29.199 90.1848 29.199 89.0988C29.199 88.005 29.887 87.1885 30.967 87.1885C32.039 87.1885 32.735 88.005 32.735 89.0988C32.735 90.1848 32.039 91.0091 30.967 91.0091ZM40.1322 91.7384V86.4514H38.8122L37.3642 90.0817L35.9082 86.4514H34.5882V91.7384H35.5242V87.6562L37.1642 91.7384H37.5642L39.1962 87.6562V91.7384H40.1322ZM42.2038 91.7384V89.7567H43.6198C44.7318 89.7567 45.3558 89.0037 45.3558 88.108C45.3558 87.2044 44.7398 86.4514 43.6198 86.4514H41.2678V91.7384H42.2038ZM43.4918 88.9403H42.2038V87.2678H43.4918C44.0198 87.2678 44.3958 87.6007 44.3958 88.108C44.3958 88.6074 44.0198 88.9403 43.4918 88.9403ZM50.3493 91.7384L48.2533 86.4514H47.0853L44.9893 91.7384H46.0533L46.4453 90.7159H48.8933L49.2853 91.7384H50.3493ZM48.6293 89.8994H46.7093L47.6693 87.3788L48.6293 89.8994ZM55.5481 91.7384V86.4514H54.6121V90.1134L51.8841 86.4514H50.9241V91.7384H51.8601V87.9574L54.6441 91.7384H55.5481ZM57.6181 91.7384V86.4514H56.6819V91.7384H57.6181ZM62.4081 91.7384V90.922H59.6881V89.4476H62.3521V88.6312H59.6881V87.2678H62.4081V86.4514H58.7521V91.7384H62.4081ZM65.2016 91.8335C66.6336 91.8335 67.2656 91.0726 67.2656 90.1927C67.2656 88.2269 64.1616 88.8373 64.1616 87.8464C64.1616 87.458 64.5136 87.1885 65.0576 87.1885C65.6176 87.1885 66.1856 87.3788 66.6096 87.7989L67.1376 87.1093C66.6496 86.6337 65.9696 86.3642 65.1456 86.3642C63.9696 86.3642 63.2016 87.0379 63.2016 87.9178C63.2016 89.8598 66.3056 89.1702 66.3056 90.2799C66.3056 90.6366 66.0096 91.0091 65.2416 91.0091C64.4976 91.0091 63.9136 90.6604 63.5536 90.272L63.0256 90.9933C63.5056 91.4847 64.2176 91.8335 65.2016 91.8335Z" fill="black"/>
<path d="M44.8825 43.5177C44.7887 43.5177 44.7887 43.4183 44.8825 43.5177L44.4135 43.2193L44.3197 43.1198L33.2518 34.7646C33.2518 34.7646 33.1581 34.7646 33.1581 34.6651L32.9704 34.4662L32.8766 34.3667H32.6891L29.5 31.9795L35.7843 32.9741C36.0657 32.9741 36.1595 33.0736 36.4408 33.1731C36.5346 33.1731 36.7222 33.2726 36.7222 33.2726C37.0036 33.372 37.0974 33.4715 37.285 33.571C37.4726 33.6704 37.5664 33.7699 37.754 33.8693C37.8478 33.9688 38.0354 34.0683 38.0354 34.1678C38.1292 34.2673 38.223 34.2673 38.3168 34.3667C38.5044 34.4662 38.5982 34.5656 38.5982 34.6651C38.8796 34.9635 39.0671 35.2619 39.3485 35.4609L44.3197 42.9209L44.4135 43.0204L44.8825 43.5177Z" fill="#18AAD1"/>
<path d="M44.8825 55.056L44.4135 54.2603L44.3197 54.1608L29.5938 31.9795L32.7828 34.3667L33.3456 34.7646L44.4135 43.1199H44.5073L44.8825 43.4183C44.8825 43.4183 44.9763 43.4183 44.9763 43.5178L45.4452 43.1199L60.3585 31.9795L45.3514 54.2603L45.2577 54.3598L44.8825 55.056Z" fill="#2AD2FF"/>
<path d="M44.883 39.738L44.414 38.9423L44.3202 38.8428L40.6621 33.4715L44.3202 34.2673H44.414L44.883 34.3668L45.3519 34.2673L48.9162 33.3721L45.3519 38.9423V39.0418L44.883 39.738Z" fill="#18AAD1"/>
<path d="M60.4529 31.8799L55.7631 32.5761L53.981 32.8746C52.5741 33.0735 51.2609 33.8693 50.4168 35.1623L45.4456 42.7218L45.3518 42.8213L44.8828 43.5176L45.4456 42.9208L45.5394 42.8213L44.8828 43.5176L57.5454 33.9687L60.4529 31.8799Z" fill="#18AAD1"/>
<path d="M47.2271 16.1643C47.2271 20.5409 40.0987 22.8286 40.0987 27.5036C40.0049 28.5978 40.2863 29.6919 40.7552 30.6866C40.7552 30.6866 38.0352 27.9015 38.0352 24.9174C38.0352 21.9334 40.6614 17.4574 40.6614 17.4574C40.6614 19.4468 41.4118 20.0436 42.1622 20.143H42.256C43.1001 20.143 43.5691 19.4468 43.5691 18.4521C43.5691 17.4574 42.5374 16.4627 42.5374 14.4734C42.5374 12.5835 44.7885 9.5 44.7885 9.5C46.383 11.4894 47.2271 13.7771 47.2271 16.1643Z" fill="#2AD2FF"/>
<path d="M45.2578 32.0787C43.0067 32.0787 41.3184 30.1888 41.3184 27.9011V27.8016C41.3184 22.7288 47.9778 22.2314 47.9778 15.3682C48.1654 15.6666 49.9475 18.2527 49.9475 21.0378C49.9475 24.5192 46.8523 25.4144 46.8523 27.1053C46.8523 27.8016 47.1337 28.299 48.0716 28.299C48.1654 28.299 48.2592 28.299 48.353 28.1995C50.1351 27.4038 51.3545 25.6134 51.4483 23.5245C51.4483 23.624 52.3862 32.0787 45.2578 32.0787Z" fill="#2AD2FF"/>
<path d="M48.1661 28.299C48.2599 28.299 48.3536 28.299 48.4474 28.1995C47.5095 28.4979 44.0391 29.3931 44.0391 26.8069C44.0391 23.624 49.1978 22.9277 49.1978 20.2421C49.1978 18.5511 48.8226 16.8602 47.9785 15.3682C48.1661 15.6666 49.9482 18.2527 49.9482 21.0378C49.9482 24.5192 46.8529 25.4144 46.8529 27.1053C46.9467 27.8016 47.3219 28.299 48.1661 28.299Z" fill="#18AAD1"/>
<path d="M45.189 17.9548C45.189 20.4414 42.1876 20.2425 42 20.1431H42.2814C43.1255 20.1431 43.5945 19.4468 43.5945 18.4521C43.5945 17.4574 42.5628 16.4627 42.5628 14.4734C42.5628 12.5835 44.8139 9.5 44.8139 9.5C44.0635 10.7931 43.6883 12.1856 43.5945 13.5782C43.5945 15.866 45.189 16.0649 45.189 17.9548Z" fill="#18AAD1"/>
<path d="M43.5811 61.528L41.4121 59.9981H44.0741L44.9614 57.2441L45.7501 59.9981H48.4121L46.2431 61.528L47.0318 64.1799L44.8628 62.548L42.5952 64.1799L43.5811 61.528Z" fill="#2AD2FF"/>
<path d="M55.169 61.528L53 59.9981H55.6619L56.5493 57.2441L57.338 59.9981H60L57.831 61.528L58.6195 64.1799L56.4507 62.548L54.1831 64.1799L55.169 61.528Z" fill="#2AD2FF"/>
<path d="M66.669 61.528L64.5 59.9981H67.162L68.0495 57.2441L68.838 59.9981H71.5L69.331 61.528L70.1195 64.1799L67.9505 62.548L65.683 64.1799L66.669 61.528Z" fill="#2AD2FF"/>
<path d="M31.669 61.528L29.5 59.9981H32.1619L33.0493 57.2441L33.8381 59.9981H36.5L34.331 61.528L35.1197 64.1799L32.9507 62.548L30.7817 64.1799L31.669 61.528Z" fill="#2AD2FF"/>
<path d="M20.169 61.528L18 59.9981H20.6619L21.5493 57.2441L22.338 59.9981H25L22.831 61.528L23.6197 64.1799L21.4507 62.548L19.2817 64.1799L20.169 61.528Z" fill="#2AD2FF"/>
</g>
</g>
<defs>
<clipPath id="clip0_911_148">
<rect width="90" height="116" fill="white"/>
</clipPath>
<clipPath id="clip1_911_148">
<rect width="76" height="97" fill="white" transform="translate(7 9.5)"/>
</clipPath>
</defs>
</svg>
